{"title":"Exam-720p MP4 AAC x264 BRRip 2009-CC","uid":7962133,"size":3040888431,"categoryP":"video","categoryS":"hd___movies","magnet":"?xt=urn:btih:ddd261706c5caa7d5cd29d0eb2fbe496124fdda6&amp;dn=Exam-720p+MP4+AAC+x264+BRRip+2009-CC&amp;tr=udp%3A%2F%2Ftracker.openbittorrent.com%3A80&amp;tr=udp%3A%2F%2Fopen.demonii.com%3A1337&amp;tr=udp%3A%2F%2Ftracker.coppersurfer.tk%3A6969&amp;tr=udp%3A%2F%2Fexodus.desync.com%3A6969","seeders":1,"leechers":0,"uploader":"Caveman44","files":-1,"time":1356568462,"description":" &lt;a href=&quot;http://www.imdb.com/title/tt1258197/&quot; rel=&quot;nofollow&quot; target=&quot;_NEW&quot;&gt;http://www.imdb.com/title/tt1258197/&lt;/a&gt;\n\nSource: Exam 2009 720p BluRay x264-AVCHD Thanks!\n\nSubs: Arabic, Brazilian, Czech, Danish, Dutch, English, Farsi-Persian, French, Greek, Hebrew, Hungarian, Indonesian, Italian, Macedonian, Norwegian, Portuguese, Romanian, Servian, Slovenian, Spanish and Turkish.\n\nSample and Screens included.\n\nGeneral\nComplete name                            : Exam-720p MP4 AAC x264 BRRip 2009-CC.mp4\nFormat                                   : MPEG-4\nFormat profile                           : Base Media\nCodec ID                                 : isom\nFile size                                : 2.80 GiB\nDuration                                 : 1h 36mn\nOverall bit rate mode                    : Variable\nOverall bit rate                         : 4 137 Kbps\nEncoded date                             : UTC 2012-12-21 15:17:38\n\nVideo\nID                                       : 1\nFormat                                   : AVC\nFormat/Info                              : Advanced Video Codec\nFormat profile                           : &lt;a class=&quot;__cf_email__&quot; href=&quot;/cdn-cgi/l/email-protection&quot; data-cfemail=&quot;5e163739361e126a706f&quot;&gt;[email&amp;#160;protected]&lt;/a&gt;&lt;script cf-hash='f9e31' type=&quot;text/javascript&quot;&gt;\n/* &lt;![CDATA[ */!function(){try{var t=&quot;currentScript&quot;in document?document.currentScript:function(){for(var t=document.getElementsByTagName(&quot;script&quot;),e=t.length;e--;)if(t[e].getAttribute(&quot;cf-hash&quot;))return t[e]}();if(t&amp;&amp;t.previousSibling){var e,r,n,i,c=t.previousSibling,a=c.getAttribute(&quot;data-cfemail&quot;);if(a){for(e=&quot;&quot;,r=parseInt(a.substr(0,2),16),n=2;a.length-n;n+=2)i=parseInt(a.substr(n,2),16)^r,e+=String.fromCharCode(i);e=document.createTextNode(e),c.parentNode.replaceChild(e,c)}}}catch(u){}}();/* ]]&gt; */&lt;/script&gt;\nFormat settings, CABAC                   : Yes\nFormat settings, ReFrames                : 5 frames\nCodec ID                                 : avc1\nCodec ID/Info                            : Advanced Video Coding\nDuration                                 : 1h 36mn\nBit rate                                 : 3 783 Kbps\nMaximum bit rate                         : 33.5 Mbps\nWidth                                    : 1 280 pixels\nHeight                                   : 544 pixels\nDisplay aspect ratio                     : 2.35:1\nFrame rate mode                          : Variable\nFrame rate                               : 25.000 fps\nMinimum frame rate                       : 20.000 fps\nMaximum frame rate                       : 25.000 fps\nColor space                              : YUV\nChroma subsampling                       : 4:2:0\nBit depth                                : 8 bits\nScan type                                : Progressive\nBits/(Pixel*Frame)                       : 0.217\nStream size                              : 2.54 GiB (91%)\nWriting library                          : x264 core 112\n\nAudio\nID                                       : 2\nFormat                                   : AAC\nFormat/Info                              : Advanced Audio Codec\nFormat profile                           : LC\nCodec ID                                 : 40\nDuration                                 : 1h 36mn\nBit rate mode                            : Variable\nBit rate                                 : 384 Kbps\nMaximum bit rate                         : 708 Kbps\nChannel(s)                               : 6 channels\nChannel positions                        : Front: L C R, Side: L R, LFE\nSampling rate                            : 48.0 KHz\nCompression mode                         : Lossy\nDelay relative to video                  : 80ms\nStream size                              : 266 MiB (9%)\n\nEnjoy...\n\nRequested by SecretMythFanBoy \n\nComing soon: Blade Trilogy, Interview with the Vampire, Apocalypse Hitler, Forrest Gump and more...","torrent":{"xt":"urn:btih:ddd261706c5caa7d5cd29d0eb2fbe496124fdda6","amp;dn":"Exam-720p+MP4+AAC+x264+BRRip+2009-CC","amp;tr":["udp%3A%2F%2Ftracker.openbittorrent.com%3A80","udp%3A%2F%2Fopen.demonii.com%3A1337","udp%3A%2F%2Ftracker.coppersurfer.tk%3A6969","udp%3A%2F%2Fexodus.desync.com%3A6969"],"infoHash":"ddd261706c5caa7d5cd29d0eb2fbe496124fdda6","infoHashBuffer":{"type":"Buffer","data":[221,210,97,112,108,92,170,125,92,210,157,14,178,251,228,150,18,79,221,166]},"announce":[],"urlList":[]}}